<svg width="80" height="57" viewBox="0 0 80 57" fill="none" xmlns="http://www.w3.org/2000/svg">
<path d="M20.4165 16.6665L39.9998 30.3748L59.5832 16.6665" stroke="white" stroke-width="1.5" stroke-linecap="round" stroke-linejoin="round"/>
<path d="M0.833252 48V8.83333C0.833252 6.7558 1.65855 4.76336 3.12758 3.29433C4.59662 1.82529 6.58906 1 8.66659 1H71.3333C73.4108 1 75.4032 1.82529 76.8723 3.29433C78.3413 4.76336 79.1666 6.7558 79.1666 8.83333V48C79.1666 50.0775 78.3413 52.07 76.8723 53.539C75.4032 55.008 73.4108 55.8333 71.3333 55.8333H8.66659C6.58906 55.8333 4.59662 55.008 3.12758 53.539C1.65855 52.07 0.833252 50.0775 0.833252 48Z" stroke="white" stroke-width="1.5"/>
</svg>
