<svg width="264" height="172" viewBox="0 0 264 172" fill="none" xmlns="http://www.w3.org/2000/svg">
<path fill-rule="evenodd" clip-rule="evenodd" d="M224.304 113.236L224.291 113.271C222.606 117.721 221.264 120.93 219.624 123.492C217.959 126.095 216.007 128.005 213.124 129.815C207.604 133.281 199.975 135.003 192.172 135.256C183.768 135.528 175.136 134.098 168.712 131.311C167.316 131.025 166.16 130.91 165.154 130.915C167.428 135.269 174.046 137.777 181.837 138.697C186.05 139.195 190.59 139.223 194.975 138.824C199.359 138.425 203.589 137.6 207.183 136.391C212.851 134.484 216.895 131.652 217.316 128.087H217.318C217.329 127.998 217.358 127.91 217.408 127.828C217.623 127.474 217.865 127.063 218.108 126.651C220.281 122.962 222.585 119.05 230.241 114.951C241.824 108.749 253.598 97.8439 259.274 88.224C261.263 84.8543 262.492 81.6594 262.681 78.9103C262.863 76.2723 262.072 74.0429 260.047 72.4777C257.906 70.8227 254.391 69.8621 249.206 69.8691C248.026 69.8705 246.917 70.0439 245.877 70.3627C241.468 71.7151 238.276 75.7168 236.18 80.4769C235.276 82.5301 234.577 84.7209 234.072 86.9018C234.578 86.0936 235.109 85.2833 235.668 84.4716C237.235 82.2007 239.077 80.0563 241.302 78.4638C243.557 76.8495 246.199 75.8011 249.334 75.7569C253.849 75.6389 255.688 77.6555 255.767 80.7079C255.863 84.374 253.16 89.6038 249.577 94.1609C246.004 98.7061 241.522 102.628 238.051 103.692C235.439 104.493 233.355 103.816 232.457 100.888C232.01 99.4301 231.778 97.5131 231.774 95.3441C231.773 94.7915 231.787 94.2213 231.817 93.6378C229.307 98.7679 227.517 103.953 225.627 109.428C225.149 110.811 224.665 112.213 224.305 113.236H224.304ZM223.083 112.812L223.085 112.807C223.629 111.26 224.02 110.129 224.406 109.009C226.666 102.463 228.785 96.3279 232.15 90.1838C232.626 86.8042 233.561 83.2126 234.994 79.9573C237.227 74.8862 240.675 70.6078 245.496 69.1297C246.653 68.7751 247.889 68.582 249.205 68.5806C254.697 68.5736 258.474 69.6318 260.836 71.4574C263.241 73.3161 264.183 75.9268 263.971 78.9981C263.767 81.9585 262.475 85.3458 260.387 88.8841C254.605 98.6844 242.626 109.785 230.847 116.092C223.514 120.019 221.304 123.77 219.221 127.306C219.016 127.653 218.813 127.997 218.584 128.378C218.015 132.443 213.656 135.577 207.593 137.617C203.907 138.857 199.575 139.703 195.092 140.111C190.609 140.519 185.975 140.491 181.685 139.984C173.221 138.984 166.032 136.103 163.764 131.005C162.395 131.177 161.28 131.576 160.08 132.006C157.996 132.753 155.666 133.588 151.496 133.604C149.9 133.609 148.457 133.531 147.163 133.385C144.418 134.849 141.191 135.702 138.109 135.837C136.83 135.893 135.572 135.827 134.381 135.631C130.082 137.645 125.511 138.577 121.411 137.647C119.516 137.218 117.604 136.52 115.827 135.389C113.064 135.876 109.814 135.954 105.687 135.961C104.054 136.95 102.222 137.263 100.347 137.582C99.0001 137.812 97.6273 138.046 96.3297 138.569C92.3673 140.168 89.0137 140.991 86.179 141.254C83.5416 141.498 81.3473 141.256 79.5224 140.698C78.4073 141.039 77.3428 141.44 76.3225 141.873C75.6288 143.022 74.7307 144.115 73.603 145.137C70.8168 147.664 66.6262 149.76 60.6521 151.222C60.1907 153.989 58.8531 156.469 56.4474 158.458C53.367 161.005 48.5318 162.728 41.5353 163.182C40.8001 163.23 38.9786 162.992 36.8138 162.643C35.8462 162.487 34.8126 162.309 33.7783 162.125C33.7917 162.743 33.6063 163.325 33.2636 163.863C32.3957 165.225 30.4402 166.218 28.1623 166.723C26.1091 167.178 23.7653 167.248 21.7276 166.839C20.1891 169.167 18.1268 170.519 15.8805 171.128C13.9804 171.643 11.9553 171.62 10.0124 171.204C8.08424 170.791 6.2319 169.989 4.66254 168.944C1.80116 167.04 -0.145273 164.304 0.00850369 161.575C0.0281647 161.219 0.33291 160.946 0.688914 160.965C1.04562 160.984 1.31806 161.289 1.29911 161.645C1.17271 163.886 2.8769 166.202 5.37595 167.866C6.81611 168.824 8.51398 169.559 10.2807 169.938C12.0319 170.313 13.8484 170.337 15.5414 169.877C17.3734 169.38 19.0698 168.305 20.392 166.484C17.5847 165.546 15.7106 163.529 16.5364 160.138C16.8355 158.909 17.5819 157.673 18.8472 156.572L18.8851 156.542C19.8183 155.738 21.0324 155.003 22.5575 154.396C17.959 151.442 14.0071 147.822 14.7247 141.811C14.9656 139.794 15.8609 137.497 17.1795 135.149C19.4918 131.033 23.127 126.724 26.8036 123.521C28.604 121.952 30.4268 120.644 32.1282 119.742C30.846 117.913 30.5946 115.885 31.03 113.801C31.5412 111.354 33.0144 108.85 34.8576 106.531C35.7416 105.418 36.7148 104.345 37.707 103.338C42.0823 98.9034 45.3797 96.7976 48.3323 96.4915C48.6315 94.7718 49.762 93.0381 51.462 91.3965C53.7946 89.1439 57.2303 87.0395 61.0284 85.3978C62.8042 84.6303 64.6502 83.9653 66.4907 83.4352C71.5906 81.9669 76.7439 81.488 81.3199 83.6248C82.6155 84.2293 83.859 85.0418 85.0366 86.0985C85.2781 85.8928 85.5506 85.7404 85.8546 85.6449C90.7411 84.1198 95.3789 83.7533 99.3497 84.1373C104.093 84.5959 107.908 86.1343 110.088 88.0618C111.297 89.1305 112.171 90.5384 112.782 92.1836C114.056 91.2637 115.642 90.7743 117.616 90.8368C132.223 91.3024 137.971 95.1433 138.962 100.83C139.349 103.05 138.986 105.531 138.132 108.189C139.101 107.801 140.063 107.629 140.987 107.731C146.561 108.34 149.546 110.448 150.619 113.307C151.338 115.223 151.175 117.446 150.34 119.759C150.03 120.62 149.626 121.495 149.14 122.371C150.119 122.478 150.989 122.735 151.684 123.12C152.518 123.581 153.115 124.227 153.384 125.027C153.667 125.868 153.576 126.847 153.002 127.917C152.095 129.608 150.701 131.062 149.016 132.246C149.793 132.292 150.619 132.314 151.494 132.311C155.438 132.297 157.656 131.501 159.642 130.789C160.844 130.359 161.964 129.957 163.301 129.754C159.713 119.074 156.284 108.263 153.307 97.3502C150.284 86.2671 147.732 75.0884 145.957 63.8486C144.743 56.1401 155.931 51.0908 170.822 48.7455C179.45 47.3868 189.334 46.9142 198.72 47.3461C200.468 47.4268 202.198 47.5385 203.9 47.6817L203.929 47.4781C204.151 45.6861 203.712 43.8598 202.368 42.124C200.429 39.62 196.639 37.2923 190.307 35.4835C176.404 31.5113 172.284 27.8719 173.312 24.2739C174.321 20.7413 180.472 17.5548 187.066 14.1387C188.57 13.36 190.097 12.5679 191.686 11.7056L191.732 11.6832C193.169 10.8939 194.322 9.82171 194.927 8.6596C195.319 7.90687 195.474 7.11973 195.311 6.36068C195.146 5.59109 194.649 4.82361 193.737 4.11441C192.128 2.86313 189.295 1.82742 184.831 1.29025C184.476 1.24812 184.222 0.926524 184.264 0.571223C184.306 0.216623 184.628 -0.037565 184.983 0.00456559C189.705 0.572627 192.752 1.70805 194.532 3.09204C195.703 4.00206 196.349 5.03075 196.577 6.09244C196.806 7.16397 196.603 8.24532 196.077 9.25716C195.355 10.644 194.011 11.9058 192.352 12.8158L192.304 12.8453C190.839 13.6401 189.236 14.4708 187.658 15.2882C181.323 18.5701 175.414 21.6316 174.558 24.6285C173.748 27.4646 177.687 30.5317 190.662 34.2385C197.282 36.1302 201.291 38.6229 203.391 41.3347C204.964 43.3675 205.478 45.5176 205.215 47.6354L205.193 47.7976C212.159 48.4548 218.596 49.6492 223.71 51.3892C230.462 53.686 234.959 56.9476 235.489 61.207C236.128 61.5729 236.701 62.1585 237.422 62.8944L237.425 62.8972C237.63 63.1078 237.853 63.3353 238.182 63.6576V63.6605C240.005 65.4475 240.19 67.3132 239.598 68.7955C239.099 70.0446 238.028 71.0066 236.919 71.4083C235.695 71.8514 234.414 71.6554 233.659 70.5165C232.945 69.4394 232.785 67.4656 233.845 64.3107L233.855 64.277C234.101 63.553 234.223 62.8544 234.227 62.1803C233.884 62.1115 233.497 62.1122 233.032 62.1929C233.159 62.4309 233.258 62.6669 233.329 62.9007C233.949 64.9335 232.644 66.6609 229.922 68.08C227.445 69.3713 223.716 70.4386 219.186 71.2664C200.883 74.6116 169.188 74.0878 154.434 68.6305C152.766 68.0133 151.515 67.0723 150.715 65.9952C150.062 65.114 149.708 64.1393 149.67 63.1668C149.638 62.353 149.828 61.5476 150.248 60.8075C149.799 59.9508 150.096 59.1181 151.029 58.3211C151.946 57.5382 153.589 56.8044 155.794 56.138C163.676 53.7583 179.217 52.0556 194.476 52.0162C196.97 52.0092 199.456 52.064 201.901 52.1876C202.66 51.1498 203.245 50.0614 203.599 48.9533C201.976 48.8192 200.328 48.7139 198.664 48.6374C189.356 48.209 179.561 48.676 171.019 50.0214C156.844 52.2543 146.16 56.8409 147.233 63.652C148.999 74.8391 151.54 85.9714 154.551 97.0118C157.542 107.978 161 118.864 164.62 129.627C165.836 129.575 167.255 129.688 169.033 130.057C169.084 130.067 169.133 130.084 169.178 130.105C175.439 132.832 183.887 134.231 192.129 133.965C199.72 133.719 207.117 132.059 212.433 128.721C215.147 127.018 216.979 125.229 218.533 122.799C220.109 120.337 221.422 117.19 223.08 112.812H223.083ZM236.731 85.2061C238.219 83.0476 239.964 81.0148 242.055 79.517C244.115 78.0424 246.518 77.0868 249.357 77.0475H249.364C252.957 76.9541 254.417 78.4581 254.477 80.7388C254.564 84.0882 251.981 89.0098 248.56 93.3611C245.129 97.7245 240.888 101.471 237.672 102.457C235.806 103.029 234.322 102.561 233.693 100.509C233.282 99.1689 233.068 97.3832 233.065 95.3441C233.063 93.8674 233.172 92.2629 233.396 90.6009C234.388 88.8047 235.488 87.01 236.731 85.2054L236.731 85.2061ZM223.296 52.6138C218.236 50.8928 211.844 49.7138 204.919 49.0692C204.602 50.1674 204.086 51.2424 203.415 52.2732C207.048 52.5014 210.572 52.8862 213.867 53.4536C219.203 54.3721 223.961 55.7694 227.656 57.7502C229.776 58.8871 231.273 59.9874 232.216 61.0448C232.951 60.8426 233.551 60.764 234.068 60.7907C233.231 57.3451 229.19 54.6192 223.296 52.6138ZM235.501 62.8368C235.814 63.0973 236.132 63.4224 236.498 63.796L236.499 63.7981C236.764 64.0684 237.047 64.3584 237.277 64.5831L237.278 64.5817C238.653 65.9292 238.816 67.2753 238.399 68.3187C238.041 69.2147 237.274 69.9049 236.48 70.1921C235.8 70.4386 235.11 70.3627 234.739 69.8017C234.223 69.0223 234.159 67.4354 235.072 64.7186L235.082 64.6906C235.298 64.0544 235.436 63.4365 235.5 62.8354L235.501 62.8368ZM231.754 62.5447C231.91 62.794 232.023 63.0376 232.096 63.275C232.498 64.5965 231.447 65.8253 229.326 66.9305C226.959 68.1642 223.356 69.1915 218.954 69.9955C200.819 73.3098 169.452 72.8049 154.881 67.415C153.46 66.8898 152.41 66.1089 151.755 65.2256C151.258 64.5564 150.989 63.8311 150.962 63.1212C150.945 62.6929 151.017 62.2652 151.179 61.8566C152.259 62.6879 154.255 63.5102 157.327 64.2987C169.538 67.4333 182.695 68.9352 195.699 68.622C208.178 68.3208 220.518 66.3491 231.753 62.5454L231.754 62.5447ZM195.67 67.3314C207.839 67.0379 219.876 65.1385 230.861 61.4809C230.021 60.6741 228.766 59.8104 227.048 58.8892C223.486 56.9806 218.86 55.6261 213.649 54.7295C210.147 54.127 206.388 53.7317 202.514 53.514L202.448 53.5968C202.073 54.0596 201.667 54.5111 201.234 54.9485C201.424 54.9773 201.613 55.0075 201.8 55.0384C206.329 55.7947 210.385 57.2959 211.345 59.0584C211.396 59.1525 211.44 59.2494 211.478 59.3477C211.759 60.1004 211.528 60.818 210.882 61.4865C210.014 62.3825 208.288 63.2167 206.042 63.9224C203.864 64.6063 201.163 65.1842 198.27 65.5872C189.195 66.8518 178.18 66.3561 175.188 62.0012L175.159 61.9549C174.69 61.2499 174.733 60.7682 175.245 60.4164V60.4136C175.728 60.0822 176.68 60.1931 178.12 60.3623C180.674 60.6622 184.962 61.1663 189.908 59.9586C192.766 59.2606 195.736 57.8015 198.211 55.8944C195.007 55.6346 191.905 55.7869 189.905 56.5326C189.642 56.631 189.399 56.7398 189.18 56.8592C185.301 58.9713 179.913 58.5339 173.917 58.0472C167.552 57.5304 160.481 56.9568 154.049 59.3793C153.104 59.7353 152.383 60.2128 151.877 60.7619C152.751 61.5006 154.612 62.268 157.646 63.0467C169.744 66.1525 182.78 67.6404 195.669 67.3293L195.67 67.3314ZM194.478 53.3068C179.727 53.3448 164.735 54.9436 156.777 57.2011C162.544 55.827 168.537 56.3129 174.019 56.758C179.818 57.2285 185.028 57.6512 188.563 55.7266C188.836 55.5784 189.134 55.4443 189.456 55.3242C191.904 54.4107 195.788 54.306 199.599 54.7316C200.056 54.3138 200.487 53.8798 200.89 53.4325C198.773 53.3413 196.629 53.3005 194.479 53.3061L194.478 53.3068ZM201.588 56.3136C201.071 56.2272 200.546 56.15 200.02 56.0833C197.216 58.5065 193.637 60.3778 190.212 61.2141C185.036 62.478 180.609 61.9577 177.974 61.648C177.299 61.5687 176.758 61.5055 176.409 61.4781C179.306 65.1743 189.556 65.4959 198.093 64.3065C200.912 63.9139 203.541 63.3515 205.657 62.6865C207.706 62.0433 209.243 61.3201 209.955 60.5849C210.236 60.2942 210.353 60.0274 210.268 59.7978C210.253 59.7585 210.234 59.7177 210.212 59.6756C209.451 58.279 205.771 57.0115 201.588 56.3136ZM21.1089 165.355C21.4649 164.712 21.7816 163.997 22.0534 163.205C22.6362 161.505 23.5588 160.52 24.9878 160.072C26.3142 159.657 28.0486 159.751 30.358 160.183L31.683 160.43C31.1662 159.81 30.3742 159.139 29.2514 158.424C28.3301 157.836 27.2502 157.205 26.1492 156.562C25.4224 156.137 24.6858 155.707 23.9556 155.265L23.7962 155.317C22.0435 155.92 20.7031 156.681 19.7292 157.52L19.6983 157.549C18.6443 158.466 18.0299 159.466 17.7925 160.442C17.1465 163.094 18.7651 164.654 21.1096 165.355H21.1089ZM23.2787 163.625C23.0273 164.358 22.7401 165.032 22.4213 165.65C24.176 165.933 26.1407 165.847 27.8842 165.461C29.8503 165.025 31.5019 164.224 32.1752 163.167C32.4189 162.785 32.5179 162.356 32.4351 161.882C31.6353 161.736 30.853 161.591 30.12 161.453C28.0163 161.059 26.4736 160.962 25.3726 161.307C24.3741 161.619 23.7161 162.348 23.2787 163.625V163.625ZM33.4321 160.749C34.656 160.969 35.8905 161.184 37.0168 161.366C39.0959 161.701 40.8212 161.932 41.4545 161.89C48.1554 161.456 52.7434 159.84 55.6231 157.459C57.613 155.814 58.785 153.793 59.2751 151.539L59.0047 151.598C52.9499 152.892 44.7133 153.404 37.589 153.847C32.7974 154.144 28.5148 154.411 25.8009 154.856L26.8022 155.443C27.8597 156.061 28.8975 156.667 29.9451 157.334C31.815 158.526 32.9203 159.675 33.4328 160.748L33.4321 160.749ZM59.4878 150.166C59.5061 149.977 59.5194 149.787 59.5293 149.596C59.5742 148.702 59.5279 147.779 59.3987 146.835C58.3447 146.19 57.3118 145.157 56.2789 143.626C53.5004 139.51 49.7514 135.472 45.7884 131.741C41.8105 127.997 37.6136 124.557 33.9602 121.654C33.6639 121.418 33.3886 121.174 33.1344 120.924L32.961 120.747C31.3116 121.595 29.4838 122.904 27.6546 124.497C24.0791 127.612 20.5493 131.793 18.3094 135.78C17.07 137.987 16.2316 140.122 16.0118 141.961C15.3384 147.6 19.529 151.01 24.1557 153.866C26.7924 153.222 31.7968 152.911 37.5132 152.555C44.5883 152.116 52.7687 151.607 58.7365 150.331C58.99 150.277 59.2407 150.221 59.4878 150.165V150.166ZM60.8192 149.656L60.8079 149.849C66.3137 148.45 70.1757 146.501 72.7372 144.178C73.1641 143.791 73.5553 143.393 73.9113 142.985C72.8433 143.513 71.8286 144.056 70.8596 144.573C66.9506 146.66 63.743 148.372 60.77 147.46C60.8374 148.205 60.855 148.939 60.8192 149.657V149.656ZM59.0153 144.86C58.5869 143.136 57.9108 141.364 57.0246 139.585C53.3052 132.109 45.9358 124.567 37.7885 119.991C37.5272 119.844 37.2288 119.752 36.8995 119.713C36.1334 119.622 35.2248 119.793 34.2221 120.177C34.3899 120.333 34.5704 120.488 34.7635 120.641C38.4366 123.56 42.6588 127.021 46.6731 130.799C50.7008 134.591 54.5157 138.701 57.3511 142.901C57.9002 143.714 58.4528 144.358 59.0153 144.86ZM58.1846 139.008C59.3376 141.325 60.1542 143.642 60.5552 145.876C63.3484 147.119 66.4268 145.476 70.2529 143.433C71.8427 142.584 73.5539 141.671 75.4209 140.853C75.8956 140.002 76.2502 139.119 76.4953 138.211C74.8866 136.115 72.2794 132.548 69.2895 128.396C61.2089 117.173 50.1636 101.536 48.8028 99.5621C48.7438 99.5045 48.6947 99.435 48.6603 99.3542C48.5746 99.1555 48.5023 98.954 48.4433 98.749C48.3661 98.4814 48.3134 98.2118 48.2825 97.9415C45.6107 98.2637 42.611 100.205 38.6276 104.243C37.6684 105.215 36.7268 106.255 35.8694 107.334C34.1378 109.513 32.7602 111.838 32.2953 114.063C31.919 115.862 32.1535 117.61 33.3135 119.17C34.7003 118.576 35.9754 118.298 37.0519 118.426C37.5483 118.485 38.0075 118.628 38.4218 118.86C46.7855 123.558 54.3563 131.313 58.1846 139.006V139.008ZM77.465 139.443C77.3856 139.671 77.2993 139.897 77.2066 140.122C77.4165 140.043 77.6286 139.965 77.8428 139.889C77.7381 139.772 77.6117 139.622 77.4657 139.443H77.465ZM76.819 136.579C77.0486 134.818 76.9229 132.972 76.5191 131.083C74.8557 123.301 68.5052 114.853 62.7818 108.542L62.041 107.725C60.1865 105.677 58.549 103.869 57.0211 102.361C54.3556 99.7306 52.0721 98.1072 49.5864 97.9134C49.6096 98.0756 49.6433 98.2357 49.6897 98.3951C49.7325 98.5439 49.7859 98.6935 49.8512 98.8431L49.8561 98.8557C50.165 99.3388 61.8647 115.873 70.3386 127.642C72.9886 131.322 75.3037 134.52 76.8197 136.578L76.819 136.579ZM77.7838 130.815C78.3125 133.288 78.3947 135.71 77.8765 138.003C78.3518 138.635 78.6341 138.991 78.6783 139.011C78.9522 139.13 79.2366 139.241 79.5329 139.343C81.1212 138.879 82.7524 138.523 84.3604 138.173C90.1147 136.919 95.5461 135.735 96.4603 129.707C94.4816 126.954 92.6018 123.489 90.9215 119.716C88.5004 114.28 86.4718 108.192 85.1566 102.711C83.8323 97.1936 83.2306 92.2707 83.6722 89.2113C83.7895 88.3975 83.9833 87.7002 84.26 87.1385C83.1533 86.1301 81.9863 85.3605 80.7729 84.7939C76.5409 82.818 71.6833 83.287 66.8446 84.6801C65.0364 85.2004 63.2438 85.845 61.5396 86.5816C57.8806 88.1629 54.5817 90.1796 52.3579 92.3275C50.9367 93.7003 49.9677 95.1124 49.6574 96.4732C52.4127 96.693 54.9518 98.5046 57.9269 101.44C59.4555 102.948 61.1169 104.782 62.9973 106.859L63.7381 107.676C69.5781 114.115 76.0627 122.763 77.7845 130.814L77.7838 130.815ZM84.6342 139.438C83.866 139.605 83.0915 139.774 82.3233 139.954C83.444 140.081 84.6855 140.094 86.0617 139.966C88.7743 139.715 92.0043 138.918 95.8487 137.368C97.2797 136.791 98.7178 136.546 100.129 136.305C101.163 136.129 102.18 135.955 103.153 135.638C101.275 134.99 99.3898 133.397 97.5697 131.159C96.1485 136.928 90.5487 138.15 84.6349 139.438H84.6342ZM96.5944 127.663C96.5839 126.611 96.4659 125.443 96.2244 124.14C95.7616 121.646 95.3895 119.449 95.0342 117.355C94.0427 111.501 93.186 106.445 91.2003 99.7208C89.6267 94.3948 87.5918 90.6536 85.2451 88.1166C85.1208 88.4754 85.0239 88.9037 84.9537 89.3931C84.5345 92.2959 85.1257 97.0469 86.4128 102.413C87.7091 107.816 89.711 113.823 92.1019 119.19C93.4971 122.322 95.0166 125.231 96.5944 127.663ZM97.4946 123.907C97.8983 126.079 97.9988 127.915 97.8492 129.476C100.211 132.661 102.66 134.664 104.981 134.664H105.187C106.928 133.484 108.407 131.346 109.389 127.153C108.102 123.781 107.369 119.396 107.484 113.693C107.595 108.164 107.791 102.489 109.066 98.1956C109.68 96.1242 110.54 94.3709 111.748 93.095C111.198 91.4421 110.387 90.0483 109.234 89.0294C107.242 87.2677 103.691 85.8549 99.2297 85.4237C95.4169 85.0551 90.9538 85.4097 86.2408 86.8808C86.1474 86.9095 86.0596 86.9524 85.9761 87.0079C88.5482 89.693 90.7614 93.6694 92.4417 99.357C94.4507 106.158 95.3129 111.248 96.3114 117.143C96.673 119.28 97.0529 121.522 97.496 123.907L97.4946 123.907ZM109.892 124.533C110.01 123.777 110.116 122.971 110.21 122.108C110.391 120.419 110.719 118.356 111.08 116.086C112.154 109.329 113.525 100.698 112.169 94.63C111.365 95.6818 110.762 97.0202 110.305 98.5594C109.075 102.704 108.884 108.28 108.774 113.718C108.685 118.092 109.104 121.646 109.892 124.534V124.533ZM111.495 122.245C111.299 124.072 111.044 125.668 110.74 127.066C111.3 128.452 111.962 129.644 112.7 130.671C113.709 132.072 114.863 133.165 116.1 134.017C117.547 133.727 118.844 133.309 120.051 132.706C122.175 131.646 124.063 129.997 126.063 127.453C125.972 125.705 126.324 123.671 127.23 121.334C128.576 117.867 130.963 114.082 133.623 111.401C134.544 110.472 135.503 109.672 136.471 109.056C137.569 106.106 138.095 103.39 137.687 101.049C136.806 95.9943 131.402 92.5698 117.576 92.1295C115.767 92.072 114.34 92.5845 113.211 93.5311C114.953 99.9384 113.492 109.134 112.355 116.29C111.999 118.529 111.676 120.564 111.495 122.246L111.495 122.245ZM110.232 129.071C109.458 131.703 108.458 133.456 107.308 134.656C110.022 134.633 112.32 134.554 114.331 134.301C113.371 133.507 112.469 132.56 111.652 131.425C111.141 130.716 110.666 129.933 110.232 129.071ZM120.629 133.865C119.701 134.328 118.735 134.689 117.704 134.971C119 135.633 120.352 136.082 121.694 136.386C125.04 137.145 128.738 136.565 132.322 135.135L132.191 135.092C130.367 134.478 128.807 133.486 127.713 132.079C127.07 131.253 126.591 130.29 126.315 129.185C124.462 131.37 122.654 132.854 120.629 133.866V133.865ZM127.427 125.604C128.444 124.147 129.508 122.456 130.658 120.495C132.493 117.366 134.211 114.295 135.506 111.399C135.182 111.684 134.859 111.989 134.539 112.311C132 114.87 129.72 118.486 128.435 121.799C127.895 123.192 127.568 124.458 127.427 125.604ZM131.771 121.148C130.194 123.838 128.768 126.038 127.393 127.841C127.541 129.216 128.015 130.359 128.735 131.284C129.666 132.48 131.014 133.332 132.601 133.866C133.12 134.04 133.664 134.181 134.228 134.289C136.132 133.362 137.979 132.213 139.696 130.918C139.207 130.529 138.832 130.115 138.571 129.687C138.093 128.905 137.984 128.085 138.224 127.297C138.423 126.639 138.864 126.024 139.532 125.491C142.186 123.377 145.176 122.415 147.679 122.322C148.283 121.312 148.772 120.305 149.126 119.323C149.859 117.291 150.015 115.369 149.41 113.757C148.508 111.352 145.864 109.564 140.852 109.015C139.809 108.902 138.673 109.247 137.518 109.922C136.151 113.462 134.049 117.266 131.772 121.146L131.771 121.148ZM140.749 130.093C142.404 128.745 143.916 127.269 145.212 125.739C145.783 125.064 146.312 124.379 146.792 123.692C144.746 123.952 142.434 124.833 140.337 126.504C139.877 126.87 139.581 127.269 139.459 127.672C139.329 128.1 139.397 128.56 139.675 129.014C139.9 129.381 140.256 129.746 140.75 130.093H140.749ZM146.199 126.575C144.957 128.042 143.521 129.461 141.95 130.771C143.174 131.336 144.821 131.791 146.92 132.057C149.05 130.856 150.82 129.252 151.865 127.305C152.257 126.575 152.332 125.946 152.161 125.437C152 124.961 151.614 124.56 151.064 124.255C150.451 123.916 149.65 123.701 148.725 123.633C148.618 123.625 148.508 123.619 148.398 123.615C147.759 124.613 147.021 125.605 146.199 126.576V126.575ZM140.839 131.662C139.462 132.724 137.999 133.698 136.484 134.547C137 134.569 137.524 134.568 138.054 134.545C140.355 134.444 142.737 133.923 144.902 133.033C143.217 132.691 141.869 132.215 140.84 131.662H140.839Z" fill="#3B0C05" fill-opacity="0.56"/>
</svg>
