<svg width="520" height="14" viewBox="0 0 520 14" fill="none" xmlns="http://www.w3.org/2000/svg">
<path d="M2.02243 13.9724C32.371 8.63828 63.1184 5.83897 93.8386 4.32539C127.919 2.64499 162.085 2.69382 196.158 4.55731C230.994 6.46149 265.748 9.43576 300.623 10.632C335.191 11.8201 369.791 11.9991 404.371 11.2219C438.08 10.4652 471.773 8.79289 505.386 5.99358C509.478 5.65181 513.57 5.29376 517.658 4.91943C520.055 4.69972 521.224 1.51388 518.142 1.79869C484.65 4.87061 451.065 6.78699 417.464 7.7757C382.617 8.80103 347.739 8.82544 312.887 7.83673C278.141 6.85209 243.518 4.26843 208.83 2.0835C174.76 -0.0729427 140.633 -0.581538 106.526 0.679779C75.2168 1.83531 43.8771 4.29691 12.8742 9.12653C9.41311 9.66768 5.95587 10.2414 2.50637 10.8476C1.66239 10.9982 0.0557191 11.4823 0.0015183 12.6338C-0.048811 13.7161 1.16296 14.123 2.02243 13.9684V13.9724Z" fill="#3D0B01" fill-opacity="0.66"/>
</svg>
