<svg width="23" height="24" viewBox="0 0 23 24" fill="none" xmlns="http://www.w3.org/2000/svg">
<path d="M17.7678 6.8825C17.7678 7.51765 17.2529 8.0325 16.6178 8.0325C15.9827 8.0325 15.4678 7.51765 15.4678 6.8825C15.4678 6.24739 15.9827 5.7325 16.6178 5.7325C17.2529 5.7325 17.7678 6.24739 17.7678 6.8825Z" fill="#3D0B01"/>
<path fill-rule="evenodd" clip-rule="evenodd" d="M6.57422 12C6.57422 9.27953 8.77957 7.07418 11.5 7.07418C12.8064 7.07418 14.0593 7.59315 14.9831 8.51692C15.9069 9.44069 16.4259 10.6936 16.4259 12C16.4259 14.7205 14.2205 16.9258 11.5 16.9258C8.77957 16.9258 6.57422 14.7205 6.57422 12ZM8.30879 12C8.30879 13.7625 9.73757 15.1912 11.5 15.1912C12.3464 15.1912 13.1581 14.855 13.7566 14.2566C14.3551 13.6581 14.6913 12.8464 14.6913 12C14.6913 10.2375 13.2625 8.80875 11.5 8.80875C9.73757 8.80875 8.30879 10.2375 8.30879 12Z" fill="#3D0B01"/>
<path fill-rule="evenodd" clip-rule="evenodd" d="M11.5003 2.41668C8.89363 2.41668 8.56781 2.41668 7.55199 2.47418C6.75686 2.4928 5.97017 2.64171 5.22324 2.915C4.58291 3.15622 4.00372 3.53581 3.52699 4.02668C3.03613 4.5034 2.65654 5.0826 2.41531 5.72293C2.14202 6.46985 1.99311 7.25655 1.97449 8.05168C1.91699 9.0675 1.91699 9.39332 1.91699 12C1.91699 14.6067 1.91699 14.9325 1.97449 15.9483C1.99311 16.7434 2.14202 17.5301 2.41531 18.2771C2.65654 18.9174 3.03613 19.4966 3.52699 19.9733C4.00372 20.4642 4.58291 20.8438 5.22324 21.085C5.97017 21.3583 6.75686 21.5072 7.55199 21.5258C8.56781 21.5833 8.89363 21.5833 11.5003 21.5833C14.107 21.5833 14.4328 21.5833 15.4486 21.5258C16.2438 21.5072 17.0305 21.3583 17.7774 21.085C18.4132 20.8349 18.9906 20.4565 19.4737 19.9734C19.9568 19.4903 20.3352 18.9129 20.5853 18.2771C20.8586 17.5301 21.0075 16.7434 21.0261 15.9483C21.0261 15.5579 21.0346 15.2695 21.0451 14.9143C21.0618 14.3453 21.0836 13.6048 21.0836 12C21.0836 9.39332 21.0836 9.0675 21.0261 8.05168C21.0075 7.25655 20.8586 6.46985 20.5853 5.72293C20.3441 5.0826 19.9645 4.5034 19.4736 4.02668C18.9969 3.53581 18.4177 3.15622 17.7774 2.915C17.0305 2.64171 16.2438 2.4928 15.4486 2.47418C14.4328 2.41668 14.107 2.41668 11.5003 2.41668ZM11.5003 4.14168C14.0591 4.14168 14.3753 4.14168 15.3336 4.19918C15.9419 4.20617 16.5447 4.31634 17.1161 4.525C17.5295 4.68536 17.9049 4.9301 18.2184 5.2436C18.5319 5.55709 18.7766 5.93248 18.937 6.34582C19.163 6.92706 19.2863 7.5432 19.3011 8.16668C19.3491 9.125 19.3586 9.47957 19.3586 12C19.3586 14.5202 19.3586 14.875 19.3011 15.8333C19.2941 16.4416 19.184 17.0444 18.9753 17.6158C18.8149 18.0292 18.5702 18.4045 18.2567 18.7181C17.9432 19.0316 17.5678 19.2763 17.1545 19.4367C16.583 19.6453 15.9803 19.7555 15.372 19.7625C14.4136 19.8104 14.0591 19.82 11.5386 19.82C9.0182 19.82 8.66363 19.82 7.70531 19.7625C7.0735 19.7767 6.44415 19.6793 5.84613 19.475C5.4328 19.3146 5.05741 19.0699 4.74392 18.7564C4.43042 18.4429 4.18568 18.0675 4.02531 17.6542C3.81234 17.0706 3.7021 16.4545 3.69949 15.8333C3.69949 15.4678 3.69114 15.1901 3.68076 14.8466C3.66396 14.2894 3.64199 13.5591 3.64199 12C3.64199 9.47957 3.64199 9.125 3.69949 8.16668C3.7021 7.54546 3.81234 6.92939 4.02531 6.34582C4.18568 5.93248 4.43042 5.5571 4.74392 5.2436C5.05741 4.9301 5.4328 4.68537 5.84613 4.525C6.42971 4.31202 7.04577 4.20179 7.66699 4.19918C8.03252 4.19918 8.31023 4.19082 8.65375 4.18045C9.21091 4.16365 9.94125 4.14168 11.5003 4.14168Z" fill="#3D0B01"/>
</svg>
